<?xml version="1.0" standalone="no"?>
<!DOCTYPE svg PUBLIC "-//W3C//DTD SVG 20010904//EN"
 "http://www.w3.org/TR/2001/REC-SVG-20010904/DTD/svg10.dtd">
<svg version="1.0" xmlns="http://www.w3.org/2000/svg"
 width="512.000000pt" height="512.000000pt" viewBox="0 0 512.000000 512.000000"
 preserveAspectRatio="xMidYMid meet">
<metadata>
Created by potrace 1.11, written by Peter Selinger 2001-2013
</metadata>
<g transform="translate(0.000000,512.000000) scale(0.100000,-0.100000)"
fill="#000000" stroke="none">
<path d="M2376 4838 c-8 -12 -265 -441 -571 -953 -305 -511 -559 -931 -563
-933 -4 -1 -113 240 -241 535 -128 296 -236 542 -240 546 -5 4 -167 -358 -361
-805 -194 -447 -364 -837 -377 -865 l-23 -53 714 0 713 0 12 43 c7 23 25 59
39 79 28 39 915 788 967 816 42 23 188 23 230 0 47 -26 937 -775 966 -814 15
-19 32 -54 39 -79 l13 -45 713 0 713 0 -345 578 c-190 317 -456 762 -592 989
-135 227 -248 410 -251 407 -3 -2 -136 -223 -295 -490 -160 -267 -295 -485
-301 -486 -5 0 -217 346 -470 771 -254 424 -464 774 -467 777 -4 3 -13 -5 -22
-18z m-39 -1252 c-2 -5 -223 -209 -493 -452 -435 -394 -490 -442 -502 -427 -7
10 -10 23 -7 31 2 7 174 297 381 643 l377 630 123 -208 c68 -114 122 -212 121
-217z m1566 -151 c52 -88 97 -166 99 -172 3 -10 -399 -382 -414 -383 -4 0 -34
45 -67 100 l-60 99 161 271 c127 213 164 268 173 258 7 -7 55 -85 108 -173z
m-3128 -145 l33 -76 -245 -309 c-135 -171 -247 -312 -249 -315 -9 -8 9 34 186
440 95 217 177 406 182 420 12 28 12 27 93 -160z"/>
<path d="M2504 3127 c-12 -7 -224 -182 -472 -390 -456 -382 -472 -398 -472
-461 0 -35 38 -86 77 -103 30 -12 44 -13 75 -4 26 8 162 116 443 352 l405 339
410 -344 c439 -368 444 -371 514 -342 39 16 76 67 76 104 0 59 -32 90 -477
463 -245 206 -455 379 -467 386 -11 7 -37 12 -56 12 -19 0 -45 -5 -56 -12z"/>
<path d="M2268 2408 l-288 -242 0 -463 0 -463 580 0 580 0 0 463 0 463 -289
242 c-159 133 -291 242 -293 242 -1 -1 -132 -110 -290 -242z m232 -408 l0
-120 -120 0 -120 0 0 120 0 120 120 0 120 0 0 -120z m360 0 l0 -120 -120 0
-120 0 0 120 0 120 120 0 120 0 0 -120z m-360 -360 l0 -120 -120 0 -120 0 0
120 0 120 120 0 120 0 0 -120z m360 0 l0 -120 -120 0 -120 0 0 120 0 120 120
0 120 0 0 -120z"/>
<path d="M25 2121 c40 -37 2524 -1861 2535 -1861 11 0 2495 1824 2535 1861 19
19 0 19 -711 19 l-731 0 -41 -39 c-76 -73 -196 -90 -291 -42 l-41 21 -2 -487
-3 -488 -715 0 -715 0 -3 487 -2 487 -48 -22 c-96 -44 -242 -16 -300 58 l-20
25 -733 0 c-714 0 -733 0 -714 -19z"/>
</g>
</svg>
